<?xml version="1.0" standalone="no"?>
<!DOCTYPE svg PUBLIC "-//W3C//DTD SVG 20010904//EN"
 "http://www.w3.org/TR/2001/REC-SVG-20010904/DTD/svg10.dtd">
<svg version="1.0" xmlns="http://www.w3.org/2000/svg"
 width="500.000000pt" height="500.000000pt" viewBox="0 0 500.000000 500.000000"
 preserveAspectRatio="xMidYMid meet">

<g transform="translate(0.000000,500.000000) scale(0.100000,-0.100000)"
fill="#000000" stroke="none">
<path d="M2137 3693 c-33 -38 -22 -99 21 -110 54 -14 92 12 92 63 0 56 -76 87
-113 47z"/>
<path d="M2807 3692 c-22 -25 -21 -75 1 -95 10 -10 32 -17 49 -17 55 0 81 59
47 108 -19 28 -74 30 -97 4z"/>
<path d="M1815 3645 c-30 -30 -32 -64 -4 -99 41 -52 139 -18 139 49 0 36 -42
75 -80 75 -19 0 -40 -9 -55 -25z"/>
<path d="M2470 3646 c-25 -12 -103 -56 -175 -98 -71 -41 -168 -95 -215 -120
-47 -25 -146 -81 -222 -125 -127 -75 -137 -79 -142 -59 -3 11 -6 32 -6 46 0
14 -14 49 -30 77 -25 43 -41 58 -90 83 -49 25 -71 30 -131 30 -39 0 -96 -7
-126 -16 l-56 -16 7 -56 c19 -163 127 -261 286 -262 l75 0 -68 -39 -69 -38 46
-12 c24 -6 57 -11 71 -11 26 0 135 58 135 72 0 3 -11 15 -25 26 -14 11 -25 30
-25 43 0 21 3 20 39 -15 l40 -39 123 68 c68 38 190 106 272 153 82 46 163 91
180 99 17 8 57 30 90 49 l59 34 77 -45 c42 -25 80 -45 84 -45 4 0 55 -27 113
-61 59 -33 183 -103 276 -155 l170 -95 39 38 c36 35 38 36 38 13 0 -13 -11
-36 -25 -50 l-26 -27 61 -32 c56 -30 66 -32 119 -26 31 4 62 10 69 14 6 4 -19
22 -60 44 l-72 37 70 0 c39 0 92 7 118 16 89 30 157 130 170 246 l6 57 -52 16
c-79 23 -183 20 -244 -9 -80 -37 -134 -116 -134 -198 0 -31 -15 -35 -46 -13
-29 20 -309 181 -327 188 -9 3 -94 50 -189 105 -251 144 -225 134 -278 108z
m-1030 -245 c17 -33 11 -48 -21 -55 -22 -4 -30 -11 -27 -23 3 -15 12 -17 55
-15 41 3 59 -1 83 -18 16 -12 30 -25 30 -30 0 -5 -25 -17 -56 -26 -54 -15 -58
-15 -83 3 -33 25 -71 98 -71 139 0 26 5 34 23 37 45 9 57 7 67 -12z m88 13
c17 -5 22 -14 22 -40 0 -40 -18 -38 -43 5 -25 43 -23 46 21 35z m2005 -13 c-3
-10 -18 -32 -34 -47 l-29 -28 0 37 c0 30 5 40 23 47 35 14 46 12 40 -9z m106
13 c27 -6 31 -11 31 -38 -1 -40 -30 -105 -63 -134 l-25 -24 -63 18 -62 18 34
29 c30 25 40 28 81 23 40 -4 50 -2 58 13 11 21 -4 31 -42 31 -15 0 -18 4 -13
18 4 9 10 25 12 35 6 19 8 20 52 11z m-1989 -162 c0 -36 -4 -44 -26 -52 -14
-6 -40 -10 -57 -10 l-32 0 43 22 c40 21 43 25 38 53 -4 16 -9 48 -12 70 l-5
40 25 -40 c17 -27 26 -54 26 -83z m1770 58 c-14 -76 -14 -77 28 -99 l37 -20
-30 0 c-16 -1 -41 2 -54 6 -22 5 -23 10 -19 63 4 50 32 119 44 107 2 -2 0 -28
-6 -57z"/>
<path d="M3115 3645 c-30 -30 -32 -64 -4 -99 14 -18 30 -26 52 -26 38 0 50 7
66 37 42 81 -50 153 -114 88z"/>
<path d="M2497 3438 c-16 -38 -42 -63 -74 -72 -35 -11 -27 -39 15 -58 25 -12
44 -30 55 -53 9 -19 21 -35 27 -35 5 0 19 18 30 40 14 27 32 45 55 54 19 8 35
20 35 25 0 6 -17 19 -39 30 -28 15 -43 32 -55 61 -19 48 -31 50 -49 8z m41
-81 c7 -8 6 -18 -4 -32 -13 -18 -15 -18 -31 -3 -13 14 -14 20 -3 32 15 19 24
20 38 3z"/>
<path d="M2220 3320 c-11 -11 -20 -25 -20 -31 0 -25 22 -49 45 -49 17 0 32
-11 50 -37 14 -21 25 -41 25 -45 0 -5 -18 -25 -41 -45 -69 -63 -94 -129 -77
-206 8 -41 22 -63 65 -108 l54 -57 -31 -22 -31 -22 -67 45 c-109 72 -370 204
-469 236 -51 17 -145 38 -208 48 -100 14 -128 15 -202 4 -95 -13 -174 -47
-199 -86 -25 -39 -15 -182 18 -260 34 -79 103 -163 184 -225 52 -38 92 -58
178 -87 102 -34 121 -37 226 -37 141 0 211 19 373 102 4 2 -2 -18 -13 -44 -45
-103 -48 -268 -8 -389 52 -156 154 -276 294 -342 l71 -34 38 -134 c20 -74 41
-135 46 -135 4 0 18 33 29 73 54 183 63 207 74 207 36 0 146 70 203 128 166
170 219 437 128 654 -5 13 10 9 62 -17 102 -51 182 -69 303 -69 91 -1 118 4
209 32 180 58 293 149 369 297 44 88 59 233 28 280 -25 38 -114 75 -212 87
-106 14 -244 -4 -384 -47 -116 -36 -450 -210 -517 -268 -22 -19 -22 -19 -59 3
l-37 23 47 41 c108 96 105 235 -6 330 l-42 36 21 38 c12 20 28 40 35 43 44 20
53 29 56 51 3 28 -20 58 -45 58 -19 0 -78 -62 -113 -119 -23 -37 -28 -40 -55
-33 -38 9 -162 9 -195 0 -21 -6 -28 -1 -49 32 -35 56 -96 120 -115 120 -9 0
-25 -9 -36 -20z m190 -171 c0 -14 -41 -48 -57 -49 -21 0 -15 17 15 39 31 23
42 26 42 10z m-65 -125 c27 -11 38 -53 20 -80 -17 -26 -62 -33 -83 -12 -20 20
-14 65 10 82 25 18 29 19 53 10z m409 -9 c30 -30 30 -57 2 -82 -26 -22 -45
-22 -73 0 -21 16 -15 64 9 81 28 20 43 20 62 1z m-1377 -140 l21 -55 -100 0
-99 0 3 32 c3 30 9 35 58 55 83 34 92 32 117 -32z m173 35 c9 -15 33 -140 28
-145 -3 -3 -31 6 -64 19 -58 23 -60 25 -82 86 l-22 63 67 -6 c36 -4 69 -11 73
-17z m2056 -42 c-24 -63 -24 -63 -86 -86 -35 -12 -64 -21 -66 -19 -2 1 5 36
14 77 17 73 18 75 52 81 19 4 52 7 72 8 l37 1 -23 -62z m188 33 c40 -17 46
-24 46 -50 l0 -31 -100 0 -100 0 20 53 c11 28 20 54 20 56 0 8 72 -9 114 -28z
m-2088 -41 c40 -17 42 -20 53 -82 14 -83 14 -101 -1 -95 -7 2 -36 13 -65 23
l-51 18 -12 61 c-6 33 -14 71 -17 84 -5 22 -4 23 23 17 16 -4 48 -16 70 -26z
m1724 20 c0 -5 -4 -29 -10 -52 -5 -24 -12 -56 -15 -71 -5 -27 -38 -47 -114
-72 -23 -7 -23 -6 -17 41 17 119 15 115 70 140 55 25 86 30 86 14z m-1565 -87
c19 -9 37 -24 39 -32 14 -49 27 -133 22 -139 -5 -5 -96 14 -102 21 -1 1 -6 39
-11 85 -10 92 -8 94 52 65z m1365 -7 c0 -12 -3 -50 -6 -84 l-7 -60 -43 -11
c-23 -6 -45 -11 -48 -11 -9 0 -7 55 4 108 9 40 17 52 43 65 45 22 57 21 57 -7z
m-1772 -38 c39 -12 72 -24 72 -27 0 -4 -15 -12 -33 -19 -18 -6 -63 -32 -101
-57 -38 -25 -72 -45 -76 -45 -19 0 -110 135 -110 164 0 8 73 13 125 9 28 -2
83 -14 123 -25z m2364 13 c10 -9 -27 -86 -63 -132 l-30 -39 -64 44 c-35 24
-84 52 -109 62 -25 11 -46 22 -46 25 0 8 98 39 157 49 49 8 142 3 155 -9z
m-1703 -118 l33 -21 -23 -13 c-24 -13 -129 -13 -141 -1 -3 4 -9 33 -13 65 l-7
57 58 -33 c33 -19 74 -43 93 -54z m946 1 c-6 -35 -12 -38 -85 -47 -30 -4 -99
18 -88 28 1 1 41 26 88 54 l85 51 3 -27 c2 -14 1 -41 -3 -59z m-430 37 c33
-15 83 -50 110 -77 l50 -49 -137 -3 c-76 -1 -200 -1 -275 0 l-137 3 39 39
c122 118 229 145 350 87z m-968 -19 c26 -11 57 -22 68 -26 17 -6 13 -11 -27
-26 -68 -26 -112 -55 -142 -95 -15 -19 -35 -35 -45 -35 -24 0 -144 62 -149 77
-7 25 170 122 225 123 12 0 44 -8 70 -18z m1879 -16 c63 -29 124 -71 124 -86
0 -13 -98 -68 -134 -76 -20 -4 -33 -2 -41 7 -37 46 -100 93 -151 114 -55 22
-57 24 -34 33 14 5 41 17 60 26 46 21 104 15 176 -18z m-1604 -83 c42 -10 79
-21 83 -25 12 -11 -119 -68 -195 -84 -70 -15 -223 -14 -238 1 -15 14 92 98
155 121 42 16 80 13 195 -13z m1362 6 c59 -21 157 -101 143 -116 -5 -4 -57 -8
-115 -7 -88 1 -122 6 -189 28 -46 15 -95 38 -110 51 l-28 24 30 1 c17 1 59 9
95 19 88 24 110 24 174 0z m-430 -201 c7 -18 16 -45 20 -60 l6 -28 -376 0
-377 0 6 33 c3 17 10 44 16 60 l11 27 340 0 341 0 13 -32z m22 -278 c-3 -21
-11 -51 -18 -65 l-11 -25 -349 0 c-191 0 -348 3 -348 8 -1 4 -7 33 -14 65
l-14 57 380 0 381 0 -7 -40z m-167 -243 l54 -2 -32 -31 c-18 -17 -63 -44 -101
-59 -60 -24 -79 -27 -142 -23 -82 5 -172 44 -220 95 l-27 28 207 -3 c114 -1
231 -3 261 -5z"/>
<path d="M1945 3127 c-16 -34 -28 -45 -62 -57 -48 -16 -61 -50 -20 -50 33 0
64 -26 87 -71 11 -21 24 -39 29 -39 5 0 15 16 21 35 13 40 53 75 86 75 13 0
24 7 26 18 2 12 -8 21 -42 32 -36 12 -48 23 -65 58 -11 23 -24 42 -30 42 -5
-1 -19 -20 -30 -43z m47 -103 c-14 -10 -20 -9 -35 3 -16 15 -16 17 0 35 17 19
17 19 34 -4 16 -21 16 -23 1 -34z"/>
<path d="M3034 3143 c-9 -40 -41 -70 -80 -77 -25 -5 -34 -12 -34 -26 0 -13 7
-20 20 -20 42 0 79 -29 90 -70 13 -49 35 -52 54 -7 17 41 60 77 92 77 39 0 32
37 -8 45 -41 9 -67 31 -85 73 -16 39 -40 42 -49 5z m45 -121 c-18 -13 -23 -13
-36 1 -12 12 -13 19 -3 37 l12 22 24 -23 24 -22 -21 -15z"/>
<path d="M1442 2039 l3 -322 132 -76 c157 -91 389 -220 493 -276 41 -23 138
-77 215 -122 191 -110 224 -125 249 -119 11 3 95 49 186 102 91 53 192 111
225 128 33 18 127 72 209 120 82 48 156 90 165 94 9 3 67 36 130 74 63 37 118
68 123 68 4 0 8 146 8 325 0 179 -1 325 -3 325 -20 0 -113 -42 -115 -52 -1 -7
-39 -35 -83 -61 l-81 -49 -85 53 c-122 75 -130 67 -132 -141 l-2 -125 -39 -27
c-39 -27 -40 -29 -40 -88 l0 -60 -47 -24 c-61 -31 -120 -93 -167 -175 -29 -50
-34 -66 -24 -72 12 -8 91 -39 127 -51 15 -4 -96 -75 -214 -137 -33 -17 -81
-44 -106 -60 l-47 -29 -43 25 c-24 14 -87 48 -139 76 -52 27 -119 66 -149 85
l-55 34 77 30 c42 16 77 33 77 37 0 14 -78 128 -116 171 -21 23 -59 53 -86 66
l-48 24 0 60 c0 59 -1 60 -40 86 l-40 27 0 136 c0 107 -3 141 -16 159 -8 12
-20 22 -26 22 -5 0 -48 -23 -93 -50 l-84 -50 -84 47 c-47 27 -87 55 -90 63 -3
12 -94 50 -121 50 -3 0 -5 -145 -4 -321z m204 153 l69 -37 3 -58 3 -57 -38 0
c-21 0 -55 -3 -75 -6 l-38 -7 0 102 c0 55 2 101 3 101 2 0 35 -17 73 -38z
m264 -89 c0 -91 -2 -103 -19 -113 -30 -16 -49 -12 -87 16 -32 25 -34 29 -34
89 l0 63 63 35 c42 23 64 31 69 23 4 -6 8 -57 8 -113z m1328 71 c31 -18 32
-21 32 -80 0 -60 -1 -62 -39 -88 -46 -32 -90 -28 -92 8 -1 18 -1 185 1 209 0
5 15 0 33 -11 17 -10 47 -28 65 -38z m222 -38 c0 -52 -3 -96 -7 -98 -5 -2 -36
-2 -71 0 l-63 4 3 56 c4 56 5 57 51 83 26 14 53 31 59 37 24 24 28 10 28 -82z
m-1692 -166 c30 -19 32 -23 32 -79 0 -57 -2 -60 -34 -80 -18 -12 -36 -21 -40
-21 -3 0 -6 28 -6 63 l0 62 -76 23 c-44 14 -73 27 -68 32 5 5 36 11 69 13 33
2 67 4 75 5 8 1 30 -7 48 -18z m1624 10 c77 0 73 -17 -10 -44 -59 -19 -62 -21
-62 -52 0 -17 -3 -45 -6 -62 l-6 -31 -39 20 c-38 19 -39 21 -39 72 0 28 4 57
8 63 11 18 66 44 80 39 8 -3 41 -5 74 -5z m-1441 -51 c25 -18 29 -27 29 -69 0
-43 -3 -51 -27 -63 -24 -13 -30 -13 -60 7 -29 19 -33 26 -33 68 0 41 3 49 28
62 34 19 29 20 63 -5z m1212 4 c13 -4 17 -16 17 -53 0 -42 -4 -51 -29 -69 -34
-24 -41 -25 -77 -9 -24 11 -26 16 -21 57 4 34 12 51 34 68 15 13 35 20 43 17
8 -4 23 -9 33 -11z m-1515 -54 c19 -8 22 -15 22 -69 0 -33 -2 -60 -5 -60 -2 0
-25 10 -50 22 -45 22 -45 22 -45 75 0 53 0 53 28 47 15 -4 37 -11 50 -15z
m1810 -31 c-3 -51 -5 -54 -46 -76 l-43 -24 3 63 c3 61 4 63 38 75 51 18 51 18
48 -38z m-1600 -84 c19 -13 22 -24 22 -75 0 -32 -3 -59 -7 -59 -3 0 -42 21
-86 47 l-80 46 54 28 c64 33 68 34 97 13z m1425 -15 c20 -11 37 -21 37 -23 0
-3 -19 -15 -42 -29 -24 -13 -60 -34 -80 -46 l-38 -23 0 64 c0 57 3 66 23 76
25 12 45 8 100 -19z m-1220 -9 c26 -16 47 -33 47 -38 0 -5 -11 -15 -25 -22
-22 -12 -27 -10 -60 19 -20 17 -40 31 -45 31 -23 0 -18 -23 15 -71 19 -28 35
-56 35 -63 0 -6 3 -22 7 -34 l6 -24 -52 26 -51 26 0 73 c0 73 0 74 33 90 42
21 36 21 90 -13z m1033 0 c2 0 4 -33 4 -73 l0 -73 -50 -27 c-44 -24 -50 -25
-50 -10 1 27 33 94 64 130 43 51 -1 56 -55 6 -23 -21 -29 -22 -53 -12 -14 7
-26 16 -26 21 0 4 21 21 47 37 45 28 49 29 81 15 19 -8 36 -14 38 -14z m-911
-117 c14 -21 25 -43 25 -50 0 -7 -19 -17 -42 -23 -24 -6 -49 -13 -55 -15 -7
-3 -15 7 -19 23 -3 15 -8 34 -10 43 -4 15 44 55 68 58 4 1 19 -16 33 -36z
m740 16 c24 -14 34 -27 31 -38 -3 -9 -8 -28 -11 -42 l-7 -26 -59 15 c-32 8
-59 18 -59 22 0 8 58 90 64 90 3 0 21 -10 41 -21z"/>
<path d="M1134 2215 c-10 -24 1 -117 17 -149 22 -46 62 -70 116 -70 47 -1 48
0 60 38 30 89 -33 169 -150 190 -29 5 -39 3 -43 -9z m124 -117 c18 -30 14 -42
-12 -32 -17 7 -46 54 -46 75 0 18 38 -11 58 -43z"/>
<path d="M3835 2223 c-50 -10 -113 -47 -130 -76 -21 -35 -24 -101 -6 -135 13
-24 36 -27 94 -11 64 17 108 111 93 194 -7 34 -11 37 -51 28z m-19 -100 c-7
-27 -39 -63 -57 -63 -19 0 -8 33 20 61 37 36 45 37 37 2z"/>
</g>
</svg>
